# xmcd
# Track frame offsets:
# 150
# 14785
# 30925
# 45000
# 59190
# 76137
# 95772
# 109670
# 124114
# 139947
# 154242
# 166877
#
# Disc length: 2386 seconds
# Revision: 1
# Processed by: cddbd v1.5.2PL0 Copyright (c) Steve Scherf et al.
# Submitted via: VisiTrax 2.11.3.279 - For more info visit www.synapsa.com
#
DISCID=9809500c
DTITLE=Slim Dusty - King Of Kalgoorlie
DYEAR=1989
DGENRE=Australian Country
TTITLE0=On My Road
TTITLE1=Like A Family To Me
TTITLE2=King Of Kalgoorlie
TTITLE3=Still The Way I Feel
TTITLE4=Straight Ahead
TTITLE5=The Last Ride
TTITLE6=Balladeers Of Australia
TTITLE7=City Of Mount Isa
TTITLE8=Ol' Lady Luck
TTITLE9=Sands Of Tanami
TTITLE10=A Thousand Years Ago
TTITLE11=Jim
EXTD=1989 EMI Music Australia Pty Limited. 2006 EMI Music Australia Pty Lim
EXTD=ited.
EXTT0=
EXTT1=
EXTT2=
EXTT3=
EXTT4=
EXTT5=
EXTT6=
EXTT7=
EXTT8=
EXTT9=
EXTT10=
EXTT11=
PLAYORDER=
